<mxfile host="Electron" modified="2023-10-28T06:54:36.339Z" agent="Mozilla/5.0 (Windows NT 10.0; Win64; x64) AppleWebKit/537.36 (KHTML, like Gecko) draw.io/21.6.8 Chrome/114.0.5735.289 Electron/25.5.0 Safari/537.36" etag="mvhCBsmNV7O6qtkDhVdS" version="21.6.8" type="device">
  <diagram name="Page-1" id="d2jROrrde5Gy_8fpiOyV">
    <mxGraphModel dx="989" dy="582" grid="1" gridSize="10" guides="1" tooltips="1" connect="1" arrows="1" fold="1" page="1" pageScale="1" pageWidth="850" pageHeight="1100" math="0" shadow="0">
      <root>
        <mxCell id="0" />
        <mxCell id="1" parent="0" />
        <mxCell id="OdZ255dV-2IoQo4XfErb-109" value="" style="endArrow=open;endSize=12;html=1;rounded=0;exitX=0.602;exitY=0.964;exitDx=0;exitDy=0;entryX=0.5;entryY=0;entryDx=0;entryDy=0;exitPerimeter=0;" edge="1" parent="1" source="OdZ255dV-2IoQo4XfErb-98" target="OdZ255dV-2IoQo4XfErb-106">
          <mxGeometry width="160" relative="1" as="geometry">
            <mxPoint x="290" y="530" as="sourcePoint" />
            <mxPoint x="450" y="530" as="targetPoint" />
          </mxGeometry>
        </mxCell>
        <mxCell id="OdZ255dV-2IoQo4XfErb-115" value="" style="html=1;whiteSpace=wrap;fillColor=#f5f5f5;fontColor=#333333;strokeColor=#0D0D0D;shadow=1;" vertex="1" parent="1">
          <mxGeometry x="220" y="270" width="460" height="70" as="geometry" />
        </mxCell>
        <mxCell id="OdZ255dV-2IoQo4XfErb-1" value="0" style="rounded=0;whiteSpace=wrap;html=1;shadow=0;fontFamily=Computer Modern;" vertex="1" parent="1">
          <mxGeometry x="230" y="290" width="30" height="30" as="geometry" />
        </mxCell>
        <mxCell id="OdZ255dV-2IoQo4XfErb-2" value="1" style="rounded=0;whiteSpace=wrap;html=1;shadow=0;fontFamily=Computer Modern;" vertex="1" parent="1">
          <mxGeometry x="260" y="290" width="30" height="30" as="geometry" />
        </mxCell>
        <mxCell id="OdZ255dV-2IoQo4XfErb-3" value="2" style="rounded=0;whiteSpace=wrap;html=1;shadow=0;fontFamily=Computer Modern;" vertex="1" parent="1">
          <mxGeometry x="290" y="290" width="30" height="30" as="geometry" />
        </mxCell>
        <mxCell id="OdZ255dV-2IoQo4XfErb-4" value="3" style="rounded=0;whiteSpace=wrap;html=1;shadow=0;fontFamily=Computer Modern;" vertex="1" parent="1">
          <mxGeometry x="320" y="290" width="30" height="30" as="geometry" />
        </mxCell>
        <mxCell id="OdZ255dV-2IoQo4XfErb-5" value="4" style="rounded=0;whiteSpace=wrap;html=1;shadow=0;fontFamily=Computer Modern;" vertex="1" parent="1">
          <mxGeometry x="350" y="290" width="30" height="30" as="geometry" />
        </mxCell>
        <mxCell id="OdZ255dV-2IoQo4XfErb-6" value="5" style="rounded=0;whiteSpace=wrap;html=1;shadow=0;fontFamily=Computer Modern;" vertex="1" parent="1">
          <mxGeometry x="380" y="290" width="30" height="30" as="geometry" />
        </mxCell>
        <mxCell id="OdZ255dV-2IoQo4XfErb-7" value="6" style="rounded=0;whiteSpace=wrap;html=1;shadow=0;fontFamily=Computer Modern;" vertex="1" parent="1">
          <mxGeometry x="410" y="290" width="30" height="30" as="geometry" />
        </mxCell>
        <mxCell id="OdZ255dV-2IoQo4XfErb-8" value="7" style="rounded=0;whiteSpace=wrap;html=1;shadow=0;fontFamily=Computer Modern;" vertex="1" parent="1">
          <mxGeometry x="440" y="290" width="30" height="30" as="geometry" />
        </mxCell>
        <mxCell id="OdZ255dV-2IoQo4XfErb-9" value="8" style="rounded=0;whiteSpace=wrap;html=1;shadow=0;fontFamily=Computer Modern;" vertex="1" parent="1">
          <mxGeometry x="470" y="290" width="30" height="30" as="geometry" />
        </mxCell>
        <mxCell id="OdZ255dV-2IoQo4XfErb-10" value="9" style="rounded=0;whiteSpace=wrap;html=1;shadow=0;fontFamily=Computer Modern;" vertex="1" parent="1">
          <mxGeometry x="500" y="290" width="30" height="30" as="geometry" />
        </mxCell>
        <mxCell id="OdZ255dV-2IoQo4XfErb-43" value="31" style="text;html=1;strokeColor=none;fillColor=none;align=center;verticalAlign=middle;whiteSpace=wrap;rounded=0;fontFamily=Computer Modern;" vertex="1" parent="1">
          <mxGeometry x="229" y="365.5" width="20" height="20" as="geometry" />
        </mxCell>
        <mxCell id="OdZ255dV-2IoQo4XfErb-57" value="frame physical address" style="rounded=0;whiteSpace=wrap;html=1;fontFamily=Computer Modern;shadow=1;" vertex="1" parent="1">
          <mxGeometry x="234" y="384.5" width="200" height="20" as="geometry" />
        </mxCell>
        <mxCell id="OdZ255dV-2IoQo4XfErb-73" value="12" style="text;html=1;strokeColor=none;fillColor=none;align=center;verticalAlign=middle;whiteSpace=wrap;rounded=0;fontFamily=Computer Modern;" vertex="1" parent="1">
          <mxGeometry x="419" y="365.5" width="20" height="20" as="geometry" />
        </mxCell>
        <mxCell id="OdZ255dV-2IoQo4XfErb-85" value="page flags" style="rounded=0;whiteSpace=wrap;html=1;fontFamily=Computer Modern;shadow=1;" vertex="1" parent="1">
          <mxGeometry x="434" y="384.5" width="120" height="20" as="geometry" />
        </mxCell>
        <mxCell id="OdZ255dV-2IoQo4XfErb-86" value="0" style="text;html=1;strokeColor=none;fillColor=none;align=center;verticalAlign=middle;whiteSpace=wrap;rounded=0;fontFamily=Computer Modern;" vertex="1" parent="1">
          <mxGeometry x="539" y="365.5" width="20" height="20" as="geometry" />
        </mxCell>
        <mxCell id="OdZ255dV-2IoQo4XfErb-88" value="1021" style="rounded=0;whiteSpace=wrap;html=1;shadow=0;fontFamily=Computer Modern;" vertex="1" parent="1">
          <mxGeometry x="580" y="290" width="30" height="30" as="geometry" />
        </mxCell>
        <mxCell id="OdZ255dV-2IoQo4XfErb-89" value="1022" style="rounded=0;whiteSpace=wrap;html=1;shadow=0;fontFamily=Computer Modern;" vertex="1" parent="1">
          <mxGeometry x="610" y="290" width="30" height="30" as="geometry" />
        </mxCell>
        <mxCell id="OdZ255dV-2IoQo4XfErb-90" value="1023" style="rounded=0;whiteSpace=wrap;html=1;shadow=0;fontFamily=Computer Modern;" vertex="1" parent="1">
          <mxGeometry x="640" y="290" width="30" height="30" as="geometry" />
        </mxCell>
        <mxCell id="OdZ255dV-2IoQo4XfErb-93" value="" style="endArrow=none;dashed=1;html=1;dashPattern=1 3;strokeWidth=2;rounded=0;entryX=0;entryY=0.5;entryDx=0;entryDy=0;exitX=1;exitY=0.5;exitDx=0;exitDy=0;" edge="1" parent="1" source="OdZ255dV-2IoQo4XfErb-10" target="OdZ255dV-2IoQo4XfErb-88">
          <mxGeometry width="50" height="50" relative="1" as="geometry">
            <mxPoint x="590" y="450" as="sourcePoint" />
            <mxPoint x="640" y="400" as="targetPoint" />
          </mxGeometry>
        </mxCell>
        <mxCell id="OdZ255dV-2IoQo4XfErb-94" value="" style="shape=curlyBracket;whiteSpace=wrap;html=1;rounded=1;labelPosition=left;verticalLabelPosition=middle;align=right;verticalAlign=middle;rotation=90;" vertex="1" parent="1">
          <mxGeometry x="383.5" y="195" width="20" height="319" as="geometry" />
        </mxCell>
        <mxCell id="OdZ255dV-2IoQo4XfErb-95" value="31" style="text;html=1;strokeColor=none;fillColor=none;align=center;verticalAlign=middle;whiteSpace=wrap;rounded=0;fontFamily=Computer Modern;" vertex="1" parent="1">
          <mxGeometry x="289" y="210" width="20" height="20" as="geometry" />
        </mxCell>
        <mxCell id="OdZ255dV-2IoQo4XfErb-96" value="page index" style="rounded=0;whiteSpace=wrap;html=1;fontFamily=Computer Modern;shadow=1;" vertex="1" parent="1">
          <mxGeometry x="294" y="229" width="200" height="20" as="geometry" />
        </mxCell>
        <mxCell id="OdZ255dV-2IoQo4XfErb-97" value="12" style="text;html=1;strokeColor=none;fillColor=none;align=center;verticalAlign=middle;whiteSpace=wrap;rounded=0;fontFamily=Computer Modern;" vertex="1" parent="1">
          <mxGeometry x="479" y="210" width="20" height="20" as="geometry" />
        </mxCell>
        <mxCell id="OdZ255dV-2IoQo4XfErb-98" value="address offset" style="rounded=0;whiteSpace=wrap;html=1;fontFamily=Computer Modern;shadow=1;" vertex="1" parent="1">
          <mxGeometry x="494" y="229" width="120" height="20" as="geometry" />
        </mxCell>
        <mxCell id="OdZ255dV-2IoQo4XfErb-99" value="0" style="text;html=1;strokeColor=none;fillColor=none;align=center;verticalAlign=middle;whiteSpace=wrap;rounded=0;fontFamily=Computer Modern;" vertex="1" parent="1">
          <mxGeometry x="599" y="210" width="20" height="20" as="geometry" />
        </mxCell>
        <mxCell id="OdZ255dV-2IoQo4XfErb-100" value="virtual address" style="text;html=1;strokeColor=none;fillColor=none;align=center;verticalAlign=middle;whiteSpace=wrap;rounded=0;fontFamily=Computer Modern;" vertex="1" parent="1">
          <mxGeometry x="208.5" y="224" width="85" height="30" as="geometry" />
        </mxCell>
        <mxCell id="OdZ255dV-2IoQo4XfErb-103" value="31" style="text;html=1;strokeColor=none;fillColor=none;align=center;verticalAlign=middle;whiteSpace=wrap;rounded=0;fontFamily=Computer Modern;" vertex="1" parent="1">
          <mxGeometry x="300.63" y="427" width="20" height="20" as="geometry" />
        </mxCell>
        <mxCell id="OdZ255dV-2IoQo4XfErb-104" value="frame physical address" style="rounded=0;whiteSpace=wrap;html=1;fontFamily=Computer Modern;shadow=1;" vertex="1" parent="1">
          <mxGeometry x="305.63" y="446" width="200" height="20" as="geometry" />
        </mxCell>
        <mxCell id="OdZ255dV-2IoQo4XfErb-105" value="12" style="text;html=1;strokeColor=none;fillColor=none;align=center;verticalAlign=middle;whiteSpace=wrap;rounded=0;fontFamily=Computer Modern;" vertex="1" parent="1">
          <mxGeometry x="490.63" y="427" width="20" height="20" as="geometry" />
        </mxCell>
        <mxCell id="OdZ255dV-2IoQo4XfErb-106" value="address offset" style="rounded=0;whiteSpace=wrap;html=1;fontFamily=Computer Modern;shadow=1;" vertex="1" parent="1">
          <mxGeometry x="505.63" y="446" width="120" height="20" as="geometry" />
        </mxCell>
        <mxCell id="OdZ255dV-2IoQo4XfErb-107" value="0" style="text;html=1;strokeColor=none;fillColor=none;align=center;verticalAlign=middle;whiteSpace=wrap;rounded=0;fontFamily=Computer Modern;" vertex="1" parent="1">
          <mxGeometry x="610.63" y="427" width="20" height="20" as="geometry" />
        </mxCell>
        <mxCell id="OdZ255dV-2IoQo4XfErb-108" value="physical address" style="text;html=1;strokeColor=none;fillColor=none;align=center;verticalAlign=middle;whiteSpace=wrap;rounded=0;fontFamily=Computer Modern;" vertex="1" parent="1">
          <mxGeometry x="215.38" y="441" width="85" height="30" as="geometry" />
        </mxCell>
        <mxCell id="OdZ255dV-2IoQo4XfErb-111" value="" style="endArrow=open;endSize=12;html=1;rounded=0;exitX=0.75;exitY=1;exitDx=0;exitDy=0;entryX=0.388;entryY=0.003;entryDx=0;entryDy=0;entryPerimeter=0;" edge="1" parent="1" source="OdZ255dV-2IoQo4XfErb-57" target="OdZ255dV-2IoQo4XfErb-104">
          <mxGeometry width="160" relative="1" as="geometry">
            <mxPoint x="517" y="275" as="sourcePoint" />
            <mxPoint x="518" y="476" as="targetPoint" />
          </mxGeometry>
        </mxCell>
        <mxCell id="OdZ255dV-2IoQo4XfErb-112" value="" style="endArrow=open;endSize=12;html=1;rounded=0;exitX=0.5;exitY=1;exitDx=0;exitDy=0;" edge="1" parent="1" source="OdZ255dV-2IoQo4XfErb-96">
          <mxGeometry width="160" relative="1" as="geometry">
            <mxPoint x="394" y="397" as="sourcePoint" />
            <mxPoint x="394" y="290" as="targetPoint" />
          </mxGeometry>
        </mxCell>
        <mxCell id="OdZ255dV-2IoQo4XfErb-113" value="page[page_index]" style="text;html=1;strokeColor=none;fillColor=none;align=center;verticalAlign=middle;whiteSpace=wrap;rounded=0;fontFamily=Computer Modern;" vertex="1" parent="1">
          <mxGeometry x="164" y="379.5" width="40" height="30" as="geometry" />
        </mxCell>
        <mxCell id="OdZ255dV-2IoQo4XfErb-116" value="Page_Table_0" style="text;html=1;strokeColor=none;fillColor=none;align=center;verticalAlign=middle;whiteSpace=wrap;rounded=0;fontFamily=Computer Modern;" vertex="1" parent="1">
          <mxGeometry x="145" y="290" width="70" height="30" as="geometry" />
        </mxCell>
        <mxCell id="OdZ255dV-2IoQo4XfErb-117" value="&amp;nbsp; - access rights&lt;br&gt;&amp;nbsp; - access type&lt;br&gt;&amp;nbsp; - present in RAM?" style="shape=note;size=20;whiteSpace=wrap;html=1;shadow=1;fontFamily=Computer Modern;align=left;" vertex="1" parent="1">
          <mxGeometry x="600" y="359.5" width="110" height="50" as="geometry" />
        </mxCell>
        <mxCell id="OdZ255dV-2IoQo4XfErb-118" value="" style="endArrow=none;dashed=1;html=1;rounded=0;entryX=0;entryY=0.5;entryDx=0;entryDy=0;entryPerimeter=0;exitX=1;exitY=0.5;exitDx=0;exitDy=0;" edge="1" parent="1" source="OdZ255dV-2IoQo4XfErb-85" target="OdZ255dV-2IoQo4XfErb-117">
          <mxGeometry width="50" height="50" relative="1" as="geometry">
            <mxPoint x="559" y="430" as="sourcePoint" />
            <mxPoint x="609" y="380" as="targetPoint" />
          </mxGeometry>
        </mxCell>
      </root>
    </mxGraphModel>
  </diagram>
</mxfile>
